<svg width="17" height="18" viewBox="0 0 17 18" fill="none" xmlns="http://www.w3.org/2000/svg">
<path d="M0.490234 8.94922C0.490234 8.64974 0.597656 8.39258 0.8125 8.17773C1.02734 7.95638 1.28451 7.8457 1.58398 7.8457H7.57031V1.86914C7.57031 1.56966 7.67773 1.3125 7.89258 1.09766C8.10742 0.882812 8.36458 0.775391 8.66406 0.775391C8.97005 0.775391 9.23047 0.882812 9.44531 1.09766C9.66016 1.3125 9.76758 1.56966 9.76758 1.86914V7.8457H15.7441C16.0436 7.8457 16.3008 7.95638 16.5156 8.17773C16.7305 8.39258 16.8379 8.64974 16.8379 8.94922C16.8379 9.25521 16.7305 9.51562 16.5156 9.73047C16.3008 9.9388 16.0436 10.043 15.7441 10.043H9.76758V16.0391C9.76758 16.332 9.66016 16.5859 9.44531 16.8008C9.23047 17.0156 8.97005 17.123 8.66406 17.123C8.36458 17.123 8.10742 17.0156 7.89258 16.8008C7.67773 16.5859 7.57031 16.332 7.57031 16.0391V10.043H1.58398C1.28451 10.043 1.02734 9.9388 0.8125 9.73047C0.597656 9.51562 0.490234 9.25521 0.490234 8.94922Z" fill="black" fill-opacity="0.5"/>
</svg>
