<svg width="13" height="12" viewBox="0 0 13 12" fill="none" xmlns="http://www.w3.org/2000/svg">
<g style="mix-blend-mode:multiply">
<path d="M6.56348 11.7241C5.7972 11.7241 5.07568 11.5773 4.39893 11.2837C3.72217 10.9937 3.12598 10.5908 2.61035 10.0752C2.09473 9.55957 1.6901 8.96517 1.39648 8.29199C1.10645 7.61523 0.961426 6.89193 0.961426 6.12207C0.961426 5.35579 1.10645 4.63607 1.39648 3.96289C1.6901 3.28613 2.09294 2.68994 2.60498 2.17432C3.12061 1.65869 3.7168 1.25586 4.39355 0.96582C5.07031 0.672201 5.79183 0.525391 6.55811 0.525391C7.32438 0.525391 8.0459 0.672201 8.72266 0.96582C9.40299 1.25586 9.99919 1.65869 10.5112 2.17432C11.0269 2.68994 11.4315 3.28613 11.7251 3.96289C12.0187 4.63607 12.1655 5.35579 12.1655 6.12207C12.1655 6.89193 12.0187 7.61523 11.7251 8.29199C11.4315 8.96517 11.0269 9.55957 10.5112 10.0752C9.99919 10.5908 9.40479 10.9937 8.72803 11.2837C8.05127 11.5773 7.32975 11.7241 6.56348 11.7241ZM3.93701 6.12744C3.93701 6.29215 3.99072 6.42822 4.09814 6.53564C4.20557 6.63949 4.34342 6.69141 4.51172 6.69141H5.99414V8.18457C5.99414 8.34928 6.04785 8.48535 6.15527 8.59277C6.2627 8.7002 6.39876 8.75391 6.56348 8.75391C6.72819 8.75391 6.86426 8.7002 6.97168 8.59277C7.08268 8.48535 7.13818 8.34928 7.13818 8.18457V6.69141H8.62598C8.79069 6.69141 8.92676 6.63949 9.03418 6.53564C9.14518 6.42822 9.20068 6.29215 9.20068 6.12744C9.20068 5.95915 9.14697 5.82129 9.03955 5.71387C8.93213 5.60645 8.79427 5.55273 8.62598 5.55273H7.13818V4.06494C7.13818 3.89665 7.08268 3.75879 6.97168 3.65137C6.86426 3.54395 6.72819 3.49023 6.56348 3.49023C6.39876 3.49023 6.2627 3.54395 6.15527 3.65137C6.04785 3.75879 5.99414 3.89665 5.99414 4.06494V5.55273H4.51172C4.34342 5.55273 4.20557 5.60645 4.09814 5.71387C3.99072 5.82129 3.93701 5.95915 3.93701 6.12744Z" fill="#2E5DB0"/>
</g>
</svg>
