<svg width="13" height="12" viewBox="0 0 13 12" fill="none" xmlns="http://www.w3.org/2000/svg">
<g style="mix-blend-mode:multiply">
<path d="M6.56348 11.7241C5.7972 11.7241 5.07568 11.5773 4.39893 11.2837C3.72217 10.9937 3.12598 10.5908 2.61035 10.0752C2.09473 9.55957 1.6901 8.96517 1.39648 8.29199C1.10645 7.61523 0.961426 6.89193 0.961426 6.12207C0.961426 5.35579 1.10645 4.63607 1.39648 3.96289C1.6901 3.28613 2.09294 2.68994 2.60498 2.17432C3.12061 1.65869 3.7168 1.25586 4.39355 0.96582C5.07031 0.672201 5.79183 0.525391 6.55811 0.525391C7.32438 0.525391 8.0459 0.672201 8.72266 0.96582C9.40299 1.25586 9.99919 1.65869 10.5112 2.17432C11.0269 2.68994 11.4315 3.28613 11.7251 3.96289C12.0187 4.63607 12.1655 5.35579 12.1655 6.12207C12.1655 6.89193 12.0187 7.61523 11.7251 8.29199C11.4315 8.96517 11.0269 9.55957 10.5112 10.0752C9.99919 10.5908 9.40479 10.9937 8.72803 11.2837C8.05127 11.5773 7.32975 11.7241 6.56348 11.7241ZM6.56348 10.4941C7.16862 10.4941 7.73438 10.3813 8.26074 10.1558C8.79069 9.93018 9.25618 9.61865 9.65723 9.22119C10.0583 8.82015 10.3716 8.35645 10.5972 7.83008C10.8228 7.30013 10.9355 6.73079 10.9355 6.12207C10.9355 5.51693 10.821 4.95117 10.5918 4.4248C10.3662 3.89486 10.0529 3.42936 9.65186 3.02832C9.25439 2.62728 8.79069 2.31396 8.26074 2.08838C7.73438 1.86279 7.16683 1.75 6.55811 1.75C5.95296 1.75 5.38542 1.86279 4.85547 2.08838C4.3291 2.31396 3.8654 2.62728 3.46436 3.02832C3.06689 3.42936 2.75537 3.89486 2.52979 4.4248C2.30778 4.95117 2.19678 5.51693 2.19678 6.12207C2.19678 6.73079 2.30778 7.30013 2.52979 7.83008C2.75537 8.35645 3.06868 8.82015 3.46973 9.22119C3.87077 9.61865 4.33447 9.93018 4.86084 10.1558C5.39079 10.3813 5.95833 10.4941 6.56348 10.4941ZM4.08203 6.12207C4.08203 5.96094 4.13216 5.83024 4.23242 5.72998C4.33268 5.62614 4.46338 5.57422 4.62451 5.57422H6.01562V4.18311C6.01562 4.02555 6.06576 3.89665 6.16602 3.79639C6.26986 3.69255 6.39876 3.64062 6.55273 3.64062C6.71387 3.64062 6.84456 3.69076 6.94482 3.79102C7.04867 3.89128 7.10059 4.02197 7.10059 4.18311V5.57422H8.49707C8.65462 5.57422 8.78353 5.62614 8.88379 5.72998C8.98405 5.83024 9.03418 5.96094 9.03418 6.12207C9.03418 6.27604 8.98405 6.40495 8.88379 6.50879C8.78353 6.60905 8.65462 6.65918 8.49707 6.65918H7.10059V8.05566C7.10059 8.21322 7.04867 8.34212 6.94482 8.44238C6.84456 8.54264 6.71387 8.59277 6.55273 8.59277C6.39876 8.59277 6.26986 8.54264 6.16602 8.44238C6.06576 8.34212 6.01562 8.21322 6.01562 8.05566V6.65918H4.62451C4.46696 6.65918 4.33626 6.60905 4.23242 6.50879C4.13216 6.40495 4.08203 6.27604 4.08203 6.12207Z" fill="#2E5DB0"/>
</g>
</svg>
