<svg width="13" height="12" viewBox="0 0 13 12" fill="none" xmlns="http://www.w3.org/2000/svg">
<path d="M7.91797 2.66211C7.77734 2.66211 7.65625 2.61328 7.55469 2.51562C7.45703 2.41406 7.4082 2.29102 7.4082 2.14648C7.4082 2.00586 7.45703 1.88477 7.55469 1.7832C7.65625 1.68164 7.77734 1.63086 7.91797 1.63086H12.0605C12.2051 1.63086 12.3281 1.68164 12.4297 1.7832C12.5312 1.88477 12.582 2.00586 12.582 2.14648C12.582 2.29102 12.5312 2.41406 12.4297 2.51562C12.3281 2.61328 12.2051 2.66211 12.0605 2.66211H7.91797ZM7.91797 5.73242C7.77734 5.73242 7.65625 5.68359 7.55469 5.58594C7.45703 5.48438 7.4082 5.36133 7.4082 5.2168C7.4082 5.07227 7.45703 4.95117 7.55469 4.85352C7.65625 4.75195 7.77734 4.70117 7.91797 4.70117H12.0605C12.2051 4.70117 12.3281 4.75195 12.4297 4.85352C12.5312 4.95117 12.582 5.07227 12.582 5.2168C12.582 5.36133 12.5312 5.48438 12.4297 5.58594C12.3281 5.68359 12.2051 5.73242 12.0605 5.73242H7.91797ZM1.00977 8.80273C0.865234 8.80273 0.742188 8.75391 0.640625 8.65625C0.542969 8.55469 0.494141 8.43164 0.494141 8.28711C0.494141 8.14258 0.542969 8.02148 0.640625 7.92383C0.742188 7.82227 0.865234 7.77148 1.00977 7.77148H12.0605C12.2051 7.77148 12.3281 7.82227 12.4297 7.92383C12.5312 8.02148 12.582 8.14258 12.582 8.28711C12.582 8.43164 12.5312 8.55469 12.4297 8.65625C12.3281 8.75391 12.2051 8.80273 12.0605 8.80273H1.00977ZM1.00977 11.8672C0.865234 11.8672 0.742188 11.8184 0.640625 11.7207C0.542969 11.623 0.494141 11.502 0.494141 11.3574C0.494141 11.209 0.542969 11.0859 0.640625 10.9883C0.742188 10.8867 0.865234 10.8359 1.00977 10.8359H12.0605C12.2051 10.8359 12.3281 10.8867 12.4297 10.9883C12.5312 11.0859 12.582 11.209 12.582 11.3574C12.582 11.502 12.5312 11.623 12.4297 11.7207C12.3281 11.8184 12.2051 11.8672 12.0605 11.8672H1.00977ZM3.51758 6.75195C3.10352 6.75195 2.71484 6.67383 2.35156 6.51758C1.98828 6.36133 1.66797 6.14453 1.39062 5.86719C1.11328 5.58594 0.894531 5.26367 0.734375 4.90039C0.578125 4.53711 0.5 4.14844 0.5 3.73438C0.5 3.32031 0.578125 2.93164 0.734375 2.56836C0.894531 2.20508 1.11328 1.88477 1.39062 1.60742C1.66797 1.32617 1.98828 1.10742 2.35156 0.951172C2.71484 0.794922 3.10352 0.716797 3.51758 0.716797C3.93164 0.716797 4.32031 0.794922 4.68359 0.951172C5.04688 1.10742 5.36719 1.32422 5.64453 1.60156C5.92188 1.87891 6.13867 2.20117 6.29492 2.56836C6.45508 2.93164 6.53516 3.32031 6.53516 3.73438C6.53516 4.14453 6.45508 4.5332 6.29492 4.90039C6.13867 5.26367 5.91992 5.58398 5.63867 5.86133C5.36133 6.13867 5.03906 6.35742 4.67188 6.51758C4.30859 6.67383 3.92383 6.75195 3.51758 6.75195ZM3.51758 5.64453C3.63867 5.64453 3.73438 5.60742 3.80469 5.5332C3.87891 5.45898 3.91602 5.36328 3.91602 5.24609V4.13281H5.0293C5.14648 4.13281 5.24219 4.09766 5.31641 4.02734C5.39062 3.95312 5.42773 3.85547 5.42773 3.73438C5.42773 3.61328 5.39062 3.51758 5.31641 3.44727C5.24219 3.37305 5.14648 3.33594 5.0293 3.33594H3.91602V2.22266C3.91602 2.10547 3.87891 2.00977 3.80469 1.93555C3.73438 1.86133 3.63867 1.82422 3.51758 1.82422C3.39648 1.82422 3.29883 1.86133 3.22461 1.93555C3.1543 2.00977 3.11914 2.10547 3.11914 2.22266V3.33594H2.00586C1.88867 3.33594 1.79297 3.37305 1.71875 3.44727C1.64453 3.51758 1.60742 3.61328 1.60742 3.73438C1.60742 3.85547 1.64453 3.95312 1.71875 4.02734C1.79297 4.09766 1.88867 4.13281 2.00586 4.13281H3.11914V5.24609C3.11914 5.36328 3.1543 5.45898 3.22461 5.5332C3.29883 5.60742 3.39648 5.64453 3.51758 5.64453Z" fill="black" fill-opacity="0.5"/>
</svg>
