<svg width="14" height="9" viewBox="0 0 14 9" fill="none" xmlns="http://www.w3.org/2000/svg">
<path d="M7.08594 0.859376C7.34635 0.859376 7.58333 0.963542 7.79687 1.17188L13.7422 7.25781C13.8307 7.34115 13.8984 7.4349 13.9453 7.53906C13.987 7.64844 14.0078 7.76563 14.0078 7.89063C14.0078 8.0625 13.9687 8.21875 13.8906 8.35938C13.8073 8.5 13.6979 8.60938 13.5625 8.6875C13.4271 8.77083 13.2734 8.8125 13.1016 8.8125C12.8516 8.8125 12.6328 8.71875 12.4453 8.53125L6.70312 2.64844L7.46094 2.64844L1.72656 8.53125C1.53906 8.71875 1.32031 8.8125 1.07031 8.8125C0.898437 8.8125 0.744791 8.77083 0.609374 8.6875C0.473958 8.60938 0.367187 8.5 0.289062 8.35938C0.205729 8.21875 0.164062 8.0625 0.164062 7.89063C0.164062 7.64583 0.252604 7.4349 0.429687 7.25781L6.375 1.17188C6.47396 1.06771 6.58333 0.989584 6.70312 0.937501C6.82292 0.885417 6.95052 0.859376 7.08594 0.859376Z" fill="black" fill-opacity="0.5"/>
</svg>
