<svg width="14" height="14" viewBox="0 0 14 14" fill="none" xmlns="http://www.w3.org/2000/svg">
<path d="M3.7207 11.2539C3.64909 11.1855 3.60189 11.1042 3.5791 11.0098C3.55632 10.9154 3.55632 10.821 3.5791 10.7266C3.60514 10.6322 3.65234 10.5524 3.7207 10.4873L6.71875 7.47949L3.7207 4.47656C3.65234 4.41146 3.60677 4.33171 3.58398 4.2373C3.5612 4.1429 3.5612 4.0485 3.58398 3.9541C3.60677 3.8597 3.65234 3.77832 3.7207 3.70996C3.79232 3.63835 3.87533 3.59115 3.96973 3.56836C4.06413 3.54557 4.15853 3.54557 4.25293 3.56836C4.34733 3.59115 4.42871 3.63672 4.49707 3.70508L7.5 6.70801L10.498 3.70508C10.5664 3.63346 10.6478 3.58789 10.7422 3.56836C10.8366 3.54557 10.9294 3.54557 11.0205 3.56836C11.1149 3.59115 11.1995 3.63835 11.2744 3.70996C11.3428 3.77832 11.3883 3.8597 11.4111 3.9541C11.4372 4.0485 11.4372 4.1429 11.4111 4.2373C11.3883 4.32845 11.3428 4.40983 11.2744 4.48145L8.27637 7.47949L11.2744 10.4824C11.3428 10.554 11.3883 10.637 11.4111 10.7314C11.4339 10.8226 11.4339 10.9154 11.4111 11.0098C11.3883 11.1042 11.3428 11.1855 11.2744 11.2539C11.2028 11.3255 11.1198 11.3727 11.0254 11.3955C10.931 11.4183 10.8366 11.4183 10.7422 11.3955C10.6478 11.3727 10.5664 11.3271 10.498 11.2588L7.5 8.25586L4.49707 11.2588C4.42871 11.3271 4.34733 11.3727 4.25293 11.3955C4.16178 11.4183 4.06738 11.4183 3.96973 11.3955C3.87533 11.3727 3.79232 11.3255 3.7207 11.2539Z" fill="black" fill-opacity="0.85"/>
</svg>
