<svg width="12" height="11" viewBox="0 0 12 11" fill="none" xmlns="http://www.w3.org/2000/svg">
<path d="M5.99512 10.5186C5.30501 10.5186 4.6556 10.3867 4.04688 10.123C3.43815 9.86263 2.90104 9.49967 2.43555 9.03418C1.97331 8.56868 1.61035 8.03158 1.34668 7.42285C1.08301 6.81413 0.951172 6.16471 0.951172 5.47461C0.951172 4.78451 1.08301 4.13509 1.34668 3.52637C1.61035 2.91764 1.97331 2.38216 2.43555 1.91992C2.90104 1.45443 3.43652 1.08984 4.04199 0.826172C4.65072 0.5625 5.30013 0.430664 5.99023 0.430664C6.68359 0.430664 7.33464 0.5625 7.94336 0.826172C8.55208 1.08984 9.08919 1.45443 9.55469 1.91992C10.0202 2.38216 10.3848 2.91764 10.6484 3.52637C10.9121 4.13509 11.0439 4.78451 11.0439 5.47461C11.0439 6.16471 10.9121 6.81413 10.6484 7.42285C10.3848 8.03158 10.0202 8.56868 9.55469 9.03418C9.08919 9.49967 8.55208 9.86263 7.94336 10.123C7.33464 10.3867 6.68522 10.5186 5.99512 10.5186ZM6.00488 2.86719C5.87467 2.86719 5.76562 2.90951 5.67773 2.99414C5.58984 3.07552 5.5459 3.18132 5.5459 3.31152V5.69434L5.59473 6.73926L5.14062 6.17285L4.57422 5.58203C4.49284 5.49414 4.3903 5.4502 4.2666 5.4502C4.14616 5.4502 4.04525 5.48926 3.96387 5.56738C3.88574 5.64551 3.84668 5.74316 3.84668 5.86035C3.84668 5.98405 3.88737 6.08659 3.96875 6.16797L5.64355 7.86719C5.75098 7.98112 5.87142 8.03809 6.00488 8.03809C6.13509 8.03809 6.25553 7.98112 6.36621 7.86719L8.04102 6.16797C8.1224 6.08333 8.16309 5.98079 8.16309 5.86035C8.16309 5.74316 8.1224 5.64551 8.04102 5.56738C7.95964 5.48926 7.85872 5.4502 7.73828 5.4502C7.61133 5.4502 7.50879 5.49414 7.43066 5.58203L6.86914 6.16797L6.41016 6.74414L6.4541 5.69434V3.31152C6.4541 3.18132 6.41178 3.07552 6.32715 2.99414C6.24251 2.90951 6.13509 2.86719 6.00488 2.86719Z" fill="white" fill-opacity="0.85"/>
</svg>
