<svg width="14" height="13" viewBox="0 0 14 13" fill="none" xmlns="http://www.w3.org/2000/svg">
<path d="M6.79492 9.21045C6.53711 9.21045 6.30078 9.10482 6.08594 8.89355L2.11133 4.82764C2.03255 4.74528 1.97168 4.65576 1.92871 4.55908C1.88932 4.45882 1.86963 4.3514 1.86963 4.23682C1.86963 4.07568 1.90723 3.93066 1.98242 3.80176C2.0612 3.66927 2.16504 3.56543 2.29395 3.49023C2.42285 3.41146 2.56608 3.37207 2.72363 3.37207C2.96354 3.37207 3.1748 3.46338 3.35742 3.646L7.01514 7.41113H6.58008L10.2271 3.646C10.4097 3.46338 10.6191 3.37207 10.8555 3.37207C11.013 3.37207 11.1562 3.41146 11.2852 3.49023C11.4141 3.56543 11.5161 3.66927 11.5913 3.80176C11.6701 3.93066 11.7095 4.07568 11.7095 4.23682C11.7095 4.46956 11.6289 4.6665 11.4678 4.82764L7.49854 8.89355C7.39111 9.00098 7.28011 9.07975 7.16553 9.12988C7.05094 9.18001 6.92741 9.20687 6.79492 9.21045Z" fill="black" fill-opacity="0.5"/>
</svg>
