<svg width="24" height="25" viewBox="0 0 24 25" fill="none" xmlns="http://www.w3.org/2000/svg">
<g clip-path="url(#clip0_586_1473)">
<path d="M21.8906 1.6875H2.10938C0.946266 1.6875 0 2.63377 0 3.79688V17.8594C0 19.0225 0.946266 19.9688 2.10938 19.9688H4.26562V23.4844C4.26563 23.6234 4.30687 23.7594 4.38413 23.875C4.46139 23.9906 4.57121 24.0808 4.69969 24.134C4.82817 24.1872 4.96955 24.2011 5.10594 24.174C5.24234 24.1468 5.36762 24.0799 5.46595 23.9815L9.47873 19.9688H21.8906C23.0537 19.9688 24 19.0225 24 17.8594V3.79688C24 2.63377 23.0537 1.6875 21.8906 1.6875ZM22.5938 17.8594C22.5938 18.2471 22.2783 18.5625 21.8906 18.5625H9.1875C9.00103 18.5625 8.82219 18.6366 8.69034 18.7685L5.67188 21.7868V19.2656C5.67188 18.8773 5.35706 18.5625 4.96875 18.5625H2.10938C1.72167 18.5625 1.40625 18.2471 1.40625 17.8594V3.79688C1.40625 3.40917 1.72167 3.09375 2.10938 3.09375H21.8906C22.2783 3.09375 22.5938 3.40917 22.5938 3.79688V17.8594Z" fill="white"/>
<path d="M17.5914 9.18334C17.5512 9.0575 17.4762 8.94556 17.3753 8.86034C17.2743 8.77512 17.1514 8.72007 17.0205 8.70151L13.9829 8.27055L12.6274 5.58906C12.5687 5.47299 12.479 5.37546 12.3682 5.30733C12.2575 5.2392 12.13 5.20312 11.9999 5.20312C11.8698 5.20312 11.7423 5.2392 11.6316 5.30733C11.5208 5.37546 11.4311 5.47299 11.3724 5.58906L10.0169 8.27055L6.97926 8.70151C6.84848 8.7201 6.72557 8.77514 6.62462 8.86034C6.52368 8.94555 6.44877 9.05746 6.40849 9.18327C6.36821 9.30908 6.36418 9.44368 6.39686 9.57168C6.42955 9.69967 6.49762 9.81586 6.59329 9.90695L8.78123 11.9892L8.26551 14.9252C8.24285 15.054 8.25661 15.1867 8.30524 15.3082C8.35388 15.4297 8.43545 15.5352 8.54079 15.6128C8.64613 15.6905 8.77105 15.7372 8.90149 15.7477C9.03194 15.7582 9.16272 15.7321 9.27914 15.6723L11.9999 14.2758L14.7207 15.6724C14.8371 15.7322 14.9679 15.7583 15.0983 15.7478C15.2287 15.7372 15.3536 15.6905 15.459 15.6129C15.5643 15.5352 15.6459 15.4297 15.6945 15.3083C15.7432 15.1868 15.7569 15.0541 15.7343 14.9252L15.2186 11.9893L17.4065 9.90704C17.5022 9.81597 17.5703 9.69978 17.603 9.57178C17.6357 9.44378 17.6317 9.30916 17.5914 9.18334ZM13.9761 11.2304C13.8921 11.3103 13.8292 11.4097 13.793 11.5198C13.7567 11.6299 13.7483 11.7473 13.7683 11.8614L14.1045 13.7755L12.321 12.8599C12.2216 12.8089 12.1116 12.7823 11.9999 12.7823C11.8882 12.7823 11.7782 12.8089 11.6788 12.8599L9.89526 13.7755L10.2315 11.8614C10.2515 11.7473 10.2431 11.6299 10.2068 11.5198C10.1706 11.4097 10.1077 11.3103 10.0237 11.2304L8.61501 9.88975L10.5777 9.61126C10.6899 9.59536 10.7965 9.5526 10.8885 9.48662C10.9806 9.42064 11.0554 9.3334 11.1065 9.23233L11.9999 7.46486L12.8933 9.23233C12.9444 9.33342 13.0192 9.42067 13.1112 9.48664C13.2033 9.55262 13.3099 9.59538 13.4221 9.61126L15.3848 9.88975L13.9761 11.2304Z" fill="white"/>
</g>
<defs>
<clipPath id="clip0_586_1473">
<rect width="24" height="24" fill="white" transform="translate(0 0.9375)"/>
</clipPath>
</defs>
</svg>
