<svg width="65" height="9" viewBox="0 0 65 9" fill="none" xmlns="http://www.w3.org/2000/svg">
<path d="M0.96875 8V-2.38419e-07H5.76563V0.859375H1.9375V3.5625H5.40625V4.42187H1.9375V8H0.96875ZM7.23535 8V2H8.12598V2.90625H8.18848C8.29785 2.60938 8.49577 2.36849 8.78223 2.18359C9.06869 1.9987 9.3916 1.90625 9.75098 1.90625C9.81869 1.90625 9.90332 1.90755 10.0049 1.91016C10.1064 1.91276 10.1833 1.91667 10.2354 1.92188V2.85937C10.2041 2.85156 10.1325 2.83984 10.0205 2.82422C9.91113 2.80599 9.79525 2.79687 9.67285 2.79687C9.38119 2.79687 9.12077 2.85807 8.8916 2.98047C8.66504 3.10026 8.48535 3.26693 8.35254 3.48047C8.22233 3.69141 8.15723 3.93229 8.15723 4.20312V8H7.23535ZM13.583 8.125C13.0413 8.125 12.5661 7.99609 12.1572 7.73828C11.751 7.48047 11.4333 7.11979 11.2041 6.65625C10.9775 6.19271 10.8643 5.65104 10.8643 5.03125C10.8643 4.40625 10.9775 3.86068 11.2041 3.39453C11.4333 2.92839 11.751 2.56641 12.1572 2.30859C12.5661 2.05078 13.0413 1.92188 13.583 1.92188C14.1247 1.92188 14.5986 2.05078 15.0049 2.30859C15.4137 2.56641 15.7314 2.92839 15.958 3.39453C16.1872 3.86068 16.3018 4.40625 16.3018 5.03125C16.3018 5.65104 16.1872 6.19271 15.958 6.65625C15.7314 7.11979 15.4137 7.48047 15.0049 7.73828C14.5986 7.99609 14.1247 8.125 13.583 8.125ZM13.583 7.29688C13.9945 7.29688 14.333 7.19141 14.5986 6.98047C14.8643 6.76953 15.0609 6.49219 15.1885 6.14844C15.3161 5.80469 15.3799 5.43229 15.3799 5.03125C15.3799 4.63021 15.3161 4.25651 15.1885 3.91016C15.0609 3.5638 14.8643 3.28385 14.5986 3.07031C14.333 2.85677 13.9945 2.75 13.583 2.75C13.1715 2.75 12.833 2.85677 12.5674 3.07031C12.3018 3.28385 12.1051 3.5638 11.9775 3.91016C11.8499 4.25651 11.7861 4.63021 11.7861 5.03125C11.7861 5.43229 11.8499 5.80469 11.9775 6.14844C12.1051 6.49219 12.3018 6.76953 12.5674 6.98047C12.833 7.19141 13.1715 7.29688 13.583 7.29688ZM17.709 8V2H18.5996V2.9375H18.6777C18.8027 2.61719 19.0046 2.36849 19.2832 2.19141C19.5618 2.01172 19.8965 1.92188 20.2871 1.92188C20.6829 1.92188 21.0124 2.01172 21.2754 2.19141C21.541 2.36849 21.748 2.61719 21.8965 2.9375H21.959C22.1126 2.6276 22.3431 2.38151 22.6504 2.19922C22.9577 2.01432 23.3262 1.92188 23.7559 1.92188C24.2923 1.92188 24.7311 2.08984 25.0723 2.42578C25.4134 2.75911 25.584 3.27865 25.584 3.98437V8H24.6621V3.98437C24.6621 3.54167 24.541 3.22526 24.2988 3.03516C24.0566 2.84505 23.7715 2.75 23.4434 2.75C23.0215 2.75 22.6947 2.8776 22.4629 3.13281C22.2311 3.38542 22.1152 3.70573 22.1152 4.09375V8H21.1777V3.89062C21.1777 3.54948 21.0671 3.27474 20.8457 3.06641C20.6243 2.85547 20.3392 2.75 19.9902 2.75C19.7507 2.75 19.5267 2.8138 19.3184 2.94141C19.1126 3.06901 18.946 3.24609 18.8184 3.47266C18.6934 3.69661 18.6309 3.95573 18.6309 4.25V8H17.709ZM30.4883 8V-2.38419e-07H31.457V3.5625H35.7227V-2.38419e-07H36.6914V8H35.7227V4.42187H31.457V8H30.4883ZM38.6309 8V-2.38419e-07H41.4277C41.985 -2.38419e-07 42.4447 0.096354 42.8066 0.289063C43.1686 0.479166 43.4382 0.735677 43.6152 1.05859C43.7923 1.37891 43.8809 1.73437 43.8809 2.125C43.8809 2.46875 43.8197 2.7526 43.6973 2.97656C43.5775 3.20052 43.4186 3.3776 43.2207 3.50781C43.0254 3.63802 42.8132 3.73437 42.584 3.79687V3.875C42.8288 3.89062 43.0749 3.97656 43.3223 4.13281C43.5697 4.28906 43.7767 4.51302 43.9434 4.80469C44.11 5.09635 44.1934 5.45312 44.1934 5.875C44.1934 6.27604 44.1022 6.63672 43.9199 6.95703C43.7376 7.27734 43.4499 7.53125 43.0566 7.71875C42.6634 7.90625 42.1517 8 41.5215 8H38.6309ZM39.5996 7.14062H41.5215C42.1543 7.14062 42.6035 7.01823 42.8691 6.77344C43.1374 6.52604 43.2715 6.22656 43.2715 5.875C43.2715 5.60417 43.2025 5.35417 43.0645 5.125C42.9264 4.89323 42.7298 4.70833 42.4746 4.57031C42.2194 4.42969 41.9173 4.35938 41.5684 4.35938H39.5996V7.14062ZM39.5996 3.51562H41.3965C41.6882 3.51562 41.9512 3.45833 42.1855 3.34375C42.4225 3.22917 42.61 3.06771 42.748 2.85937C42.8887 2.65104 42.959 2.40625 42.959 2.125C42.959 1.77344 42.8366 1.47526 42.5918 1.23047C42.347 0.983073 41.959 0.859375 41.4277 0.859375H39.5996V3.51562ZM45.7852 8V-2.38419e-07H48.4883C49.1133 -2.38419e-07 49.6263 0.106771 50.0273 0.320312C50.4284 0.53125 50.7253 0.821614 50.918 1.19141C51.1107 1.5612 51.207 1.98177 51.207 2.45312C51.207 2.92448 51.1107 3.34245 50.918 3.70703C50.7253 4.07161 50.4297 4.35807 50.0313 4.56641C49.6328 4.77214 49.1237 4.875 48.5039 4.875H46.3164V4H48.4727C48.8997 4 49.2435 3.9375 49.5039 3.8125C49.7669 3.6875 49.957 3.51042 50.0742 3.28125C50.194 3.04948 50.2539 2.77344 50.2539 2.45312C50.2539 2.13281 50.194 1.85286 50.0742 1.61328C49.9544 1.3737 49.763 1.1888 49.5 1.05859C49.237 0.925781 48.8893 0.859375 48.457 0.859375H46.7539V8H45.7852ZM49.5508 4.40625L51.5195 8H50.3945L48.457 4.40625H49.5508ZM64.249 6.09326C64.249 6.24007 64.1989 6.36182 64.0986 6.4585C64.002 6.55518 63.8892 6.60352 63.7603 6.60352C63.6278 6.60352 63.5132 6.55339 63.4165 6.45312C63.3234 6.35286 63.2769 6.24007 63.2769 6.11475V4.12744L63.3735 1.61914L62.4873 2.62354L57.1538 7.95166C57.0571 8.04834 56.9443 8.09668 56.8154 8.09668C56.7259 8.09668 56.6436 8.0734 56.5684 8.02686C56.4932 7.98031 56.4323 7.91943 56.3857 7.84424C56.3392 7.76546 56.3159 7.68311 56.3159 7.59717C56.3159 7.47184 56.366 7.35905 56.4663 7.25879L61.7891 1.92529L62.7881 1.0498L60.167 1.13574H58.2979C58.1725 1.13574 58.0597 1.08919 57.9595 0.996094C57.8628 0.899414 57.8145 0.786621 57.8145 0.657715C57.8145 0.528809 57.861 0.416016 57.9541 0.319336C58.0472 0.219076 58.1689 0.168945 58.3193 0.168945H63.7227C63.8838 0.168945 64.0109 0.217285 64.104 0.313965C64.1971 0.410645 64.2437 0.53597 64.2437 0.689941L64.249 6.09326Z" fill="black" fill-opacity="0.5"/>
</svg>
