<svg width="24" height="25" viewBox="0 0 24 25" fill="none" xmlns="http://www.w3.org/2000/svg">
<g clip-path="url(#clip0_586_1457)">
<path d="M6.75 3.1875C6.15326 3.1875 5.58097 3.42455 5.15901 3.84651C4.73705 4.26847 4.5 4.84076 4.5 5.4375V9.9375C4.5 10.5342 4.73705 11.1065 5.15901 11.5285C5.58097 11.9504 6.15326 12.1875 6.75 12.1875H15C15.5967 12.1875 16.169 11.9504 16.591 11.5285C17.0129 11.1065 17.25 10.5342 17.25 9.9375V5.4375C17.25 4.84076 17.0129 4.26847 16.591 3.84651C16.169 3.42455 15.5967 3.1875 15 3.1875H6.75ZM15.75 5.4375V9.9375C15.75 10.1364 15.671 10.3272 15.5303 10.4678C15.3897 10.6085 15.1989 10.6875 15 10.6875H6.75C6.55109 10.6875 6.36032 10.6085 6.21967 10.4678C6.07902 10.3272 6 10.1364 6 9.9375V5.4375C6 5.23859 6.07902 5.04782 6.21967 4.90717C6.36032 4.76652 6.55109 4.6875 6.75 4.6875H15C15.1989 4.6875 15.3897 4.76652 15.5303 4.90717C15.671 5.04782 15.75 5.23859 15.75 5.4375ZM21 13.6875H6.75C6.15326 13.6875 5.58097 13.9246 5.15901 14.3465C4.73705 14.7685 4.5 15.3408 4.5 15.9375V20.4375C4.5 21.0342 4.73705 21.6065 5.15901 22.0285C5.58097 22.4504 6.15326 22.6875 6.75 22.6875H21C21.5967 22.6875 22.169 22.4504 22.591 22.0285C23.0129 21.6065 23.25 21.0342 23.25 20.4375V15.9375C23.25 15.3408 23.0129 14.7685 22.591 14.3465C22.169 13.9246 21.5967 13.6875 21 13.6875ZM21.75 20.4375C21.75 20.6364 21.671 20.8272 21.5303 20.9678C21.3897 21.1085 21.1989 21.1875 21 21.1875H6.75C6.55109 21.1875 6.36032 21.1085 6.21967 20.9678C6.07902 20.8272 6 20.6364 6 20.4375V15.9375C6 15.7386 6.07902 15.5478 6.21967 15.4072C6.36032 15.2665 6.55109 15.1875 6.75 15.1875H21C21.1989 15.1875 21.3897 15.2665 21.5303 15.4072C21.671 15.5478 21.75 15.7386 21.75 15.9375V20.4375ZM1.5 23.4375C1.5 23.6364 1.57902 23.8272 1.71967 23.9678C1.86032 24.1085 2.05109 24.1875 2.25 24.1875C2.44891 24.1875 2.63968 24.1085 2.78033 23.9678C2.92098 23.8272 3 23.6364 3 23.4375V2.4375C3 2.23859 2.92098 2.04782 2.78033 1.90717C2.63968 1.76652 2.44891 1.6875 2.25 1.6875C2.05109 1.6875 1.86032 1.76652 1.71967 1.90717C1.57902 2.04782 1.5 2.23859 1.5 2.4375V23.4375Z" fill="white"/>
</g>
<defs>
<clipPath id="clip0_586_1457">
<rect width="24" height="24" fill="white" transform="translate(0 0.9375)"/>
</clipPath>
</defs>
</svg>
