<svg width="14" height="11" viewBox="0 0 14 11" fill="none" xmlns="http://www.w3.org/2000/svg">
<path d="M0.603516 7.87207C0.603516 7.69629 0.621419 7.51562 0.657227 7.33008C0.693034 7.14128 0.75651 6.94108 0.847656 6.72949L2.81543 2.04688C2.97168 1.67904 3.19792 1.39583 3.49414 1.19727C3.79362 0.998698 4.14355 0.899414 4.54395 0.899414C5.04525 0.899414 5.44564 1.04915 5.74512 1.34863C6.04785 1.64486 6.19922 2.04036 6.19922 2.53516V2.9209C6.32943 2.88509 6.46126 2.85742 6.59473 2.83789C6.72819 2.81836 6.86491 2.80859 7.00488 2.80859C7.14811 2.80859 7.28483 2.81673 7.41504 2.83301C7.5485 2.84603 7.67708 2.86882 7.80078 2.90137V2.54004C7.80078 2.04525 7.95052 1.64974 8.25 1.35352C8.55273 1.05404 8.95475 0.904297 9.45605 0.904297C9.85319 0.904297 10.2015 1.00358 10.501 1.20215C10.8005 1.39746 11.0283 1.68066 11.1846 2.05176L13.1523 6.73438C13.2435 6.94596 13.307 7.14453 13.3428 7.33008C13.3786 7.51562 13.3965 7.69792 13.3965 7.87695C13.3965 8.3457 13.2695 8.76562 13.0156 9.13672C12.765 9.50781 12.4281 9.80078 12.0049 10.0156C11.5817 10.2337 11.1113 10.3428 10.5938 10.3428C10.0762 10.3428 9.60579 10.2337 9.18262 10.0156C8.75944 9.80078 8.42253 9.50781 8.17188 9.13672C7.92448 8.76562 7.80078 8.3457 7.80078 7.87695V6.73926C7.57943 6.66764 7.31413 6.63184 7.00488 6.63184C6.86165 6.63184 6.72168 6.64323 6.58496 6.66602C6.44824 6.6888 6.31966 6.71973 6.19922 6.75879V7.87207C6.19922 8.34082 6.07389 8.76074 5.82324 9.13184C5.57259 9.50293 5.23568 9.7959 4.8125 10.0107C4.38932 10.2288 3.92057 10.3379 3.40625 10.3379C2.88867 10.3379 2.41829 10.2288 1.99512 10.0107C1.57194 9.7959 1.2334 9.50293 0.979492 9.13184C0.728841 8.76074 0.603516 8.34082 0.603516 7.87207ZM1.64355 7.87207C1.64355 8.15853 1.72005 8.41243 1.87305 8.63379C2.0293 8.85189 2.23926 9.02279 2.50293 9.14648C2.76986 9.27018 3.07096 9.33203 3.40625 9.33203C3.74479 9.33203 4.04753 9.27018 4.31445 9.14648C4.58464 9.02604 4.79622 8.85677 4.94922 8.63867C5.10547 8.41732 5.18359 8.16178 5.18359 7.87207C5.18359 7.5791 5.10547 7.32357 4.94922 7.10547C4.79622 6.88411 4.58464 6.71322 4.31445 6.59277C4.04427 6.47233 3.74154 6.41211 3.40625 6.41211C3.07096 6.41211 2.76986 6.47233 2.50293 6.59277C2.23926 6.71322 2.0293 6.88411 1.87305 7.10547C1.72005 7.32357 1.64355 7.5791 1.64355 7.87207ZM8.81641 7.87695C8.81641 8.16667 8.89453 8.42057 9.05078 8.63867C9.20703 8.85677 9.41862 9.02604 9.68555 9.14648C9.95573 9.27018 10.2585 9.33203 10.5938 9.33203C10.9323 9.33203 11.2334 9.27018 11.4971 9.14648C11.7607 9.02279 11.9691 8.85189 12.1221 8.63379C12.2751 8.41569 12.3516 8.16341 12.3516 7.87695C12.3516 7.58398 12.2751 7.32845 12.1221 7.11035C11.9691 6.889 11.7607 6.7181 11.4971 6.59766C11.2334 6.47396 10.9323 6.41211 10.5938 6.41211C10.2585 6.41211 9.95573 6.47396 9.68555 6.59766C9.41862 6.7181 9.20703 6.889 9.05078 7.11035C8.89453 7.32845 8.81641 7.58398 8.81641 7.87695ZM6.19922 5.25977C6.31966 5.2207 6.44824 5.18978 6.58496 5.16699C6.72168 5.14421 6.86165 5.13281 7.00488 5.13281C7.31413 5.13281 7.57943 5.16536 7.80078 5.23047V4.41016C7.67708 4.38086 7.5485 4.35807 7.41504 4.3418C7.28483 4.32552 7.14811 4.31738 7.00488 4.31738C6.72493 4.31738 6.45638 4.35482 6.19922 4.42969V5.25977Z" fill="#2E5DB0"/>
</svg>
