<svg width="12" height="3" viewBox="0 0 12 3" fill="none" xmlns="http://www.w3.org/2000/svg">
<path d="M1.23828 2.95312C1.01562 2.95312 0.814453 2.90039 0.634766 2.79492C0.455078 2.68555 0.3125 2.54102 0.207031 2.36133C0.101562 2.18164 0.0488281 1.98438 0.0488281 1.76953C0.0488281 1.55078 0.101562 1.35156 0.207031 1.17188C0.3125 0.992188 0.455078 0.849609 0.634766 0.744141C0.814453 0.634766 1.01562 0.580078 1.23828 0.580078C1.45312 0.580078 1.65039 0.634766 1.83008 0.744141C2.00977 0.849609 2.15234 0.992188 2.25781 1.17188C2.36328 1.35156 2.41602 1.55078 2.41602 1.76953C2.41602 1.98438 2.36328 2.18164 2.25781 2.36133C2.15234 2.54102 2.00977 2.68555 1.83008 2.79492C1.65039 2.90039 1.45312 2.95312 1.23828 2.95312ZM5.61523 2.95312C5.39648 2.95312 5.19727 2.90039 5.01758 2.79492C4.83789 2.68555 4.69336 2.54102 4.58398 2.36133C4.47852 2.18164 4.42578 1.98438 4.42578 1.76953C4.42578 1.55078 4.47852 1.35156 4.58398 1.17188C4.69336 0.992188 4.83789 0.849609 5.01758 0.744141C5.19727 0.634766 5.39648 0.580078 5.61523 0.580078C5.83398 0.580078 6.03125 0.634766 6.20703 0.744141C6.38672 0.849609 6.5293 0.992188 6.63477 1.17188C6.74414 1.35156 6.79883 1.55078 6.79883 1.76953C6.79883 1.98438 6.74414 2.18164 6.63477 2.36133C6.5293 2.54102 6.38672 2.68555 6.20703 2.79492C6.03125 2.90039 5.83398 2.95312 5.61523 2.95312ZM9.99219 2.95312C9.77344 2.95312 9.57422 2.90039 9.39453 2.79492C9.21484 2.68555 9.07227 2.54102 8.9668 2.36133C8.86133 2.18164 8.80859 1.98438 8.80859 1.76953C8.80859 1.55078 8.86133 1.35156 8.9668 1.17188C9.07227 0.992188 9.21484 0.849609 9.39453 0.744141C9.57422 0.634766 9.77344 0.580078 9.99219 0.580078C10.2109 0.580078 10.4102 0.634766 10.5898 0.744141C10.7695 0.849609 10.9121 0.992188 11.0176 1.17188C11.127 1.35156 11.1816 1.55078 11.1816 1.76953C11.1816 1.98438 11.127 2.18164 11.0176 2.36133C10.9121 2.54102 10.7695 2.68555 10.5898 2.79492C10.4102 2.90039 10.2109 2.95312 9.99219 2.95312Z" fill="black" fill-opacity="0.5"/>
</svg>
