<svg width="24" height="25" viewBox="0 0 24 25" fill="none" xmlns="http://www.w3.org/2000/svg">
<g clip-path="url(#clip0_586_1461)">
<path fill-rule="evenodd" clip-rule="evenodd" d="M3.42433 15.75C4.36994 15.75 5.22605 16.1333 5.84573 16.753C6.46541 17.3727 6.84875 18.2289 6.84875 19.1744C6.84875 20.1199 6.46541 20.976 5.84573 21.5957C5.22605 22.2154 4.36994 22.5988 3.42433 22.5988C2.47898 22.5988 1.62271 22.2154 1.00302 21.5957C0.383344 20.976 0 20.1199 0 19.1744C0 18.2289 0.383344 17.3727 1.00302 16.753C1.62271 16.1333 2.47898 15.75 3.42433 15.75ZM4.20559 20.0612C4.15937 20.2924 4.11314 20.5234 4.08486 20.7221C4.05668 20.9208 4.04636 21.0871 4.03612 21.2531C3.98998 21.1545 3.94367 21.0558 3.89233 20.9818C3.84089 20.9078 3.78452 20.8585 3.72806 20.8091C3.65607 20.9234 3.58418 21.0376 3.56432 21.1065C3.54445 21.1753 3.57654 21.1987 3.61505 21.4544C3.63561 21.591 3.65798 21.7937 3.68123 22.0274C3.59658 22.0349 3.51098 22.0387 3.42433 22.0387C3.33786 22.0387 3.25209 22.0349 3.16753 22.0274C3.19077 21.7937 3.21315 21.591 3.2337 21.4544C3.2723 21.1987 3.30439 21.1753 3.28453 21.1065C3.26458 21.0376 3.19268 20.9234 3.12078 20.8091C3.06432 20.8585 3.00786 20.9078 2.95652 20.9818C2.90509 21.0558 2.85886 21.1545 2.81272 21.2531C2.80248 21.0871 2.79216 20.9208 2.76398 20.7221C2.7357 20.5234 2.68939 20.2924 2.64325 20.0612C2.53024 20.1625 2.41732 20.2638 2.22599 20.3624C2.03476 20.4611 1.53407 20.5572 1.33633 20.6949C1.25653 20.7503 1.18863 20.8126 1.12982 20.8893C0.771978 20.4113 0.560011 19.8175 0.560011 19.1744C0.560011 18.3834 0.88065 17.6672 1.39886 17.1489C1.91715 16.6306 2.63336 16.31 3.42433 16.31C4.21539 16.31 4.9316 16.6306 5.44981 17.1489C5.96811 17.6672 6.28874 18.3834 6.28874 19.1744C6.28874 19.8175 6.07678 20.4113 5.71893 20.8893C5.66013 20.8126 5.59222 20.7503 5.51252 20.6949C5.31477 20.5572 4.81409 20.4611 4.62276 20.3624C4.43152 20.2638 4.3186 20.1625 4.20559 20.0612ZM4.03352 19.6375V19.9859C4.03352 20.0493 4.00698 20.1039 3.95729 20.1424L3.40161 20.5739L2.84594 20.1424C2.79615 20.1039 2.76961 20.0493 2.76961 19.9859V19.6296L2.72582 19.5831C2.64516 19.498 2.60223 19.3992 2.59468 19.2816L2.58176 19.0818L2.57907 19.0809C2.53969 19.0689 2.50665 19.0549 2.48202 19.0346C2.45722 19.0142 2.44074 18.9873 2.42192 18.9341C2.40318 18.8808 2.38211 18.8011 2.36702 18.7298C2.35193 18.6586 2.34265 18.5955 2.33866 18.5406C2.33458 18.4857 2.33545 18.439 2.34828 18.4025C2.36103 18.366 2.39538 18.3369 2.41923 18.3293C2.44308 18.3218 2.45574 18.3265 2.46641 18.3237C2.4717 18.3223 2.48202 18.3173 2.47716 18.3109C2.0397 17.7127 2.59026 16.9697 3.29806 16.8653C3.64862 16.8136 3.99735 16.9058 4.15312 17.2898C4.48998 17.3542 4.60151 18.0218 4.37263 18.2952C4.36647 18.3026 4.36014 18.3095 4.35381 18.3158L4.35303 18.3218C4.37072 18.3229 4.38755 18.3267 4.40368 18.3328C4.43777 18.3458 4.4689 18.3691 4.48365 18.4122C4.4983 18.4556 4.49631 18.5191 4.49093 18.5823C4.48538 18.6455 4.47627 18.7085 4.46118 18.7719C4.44609 18.8354 4.4251 18.8993 4.40628 18.9448C4.38764 18.99 4.37116 19.017 4.34644 19.0373C4.32172 19.0578 4.28868 19.0716 4.2493 19.0837C4.24193 19.0859 4.23439 19.088 4.22658 19.09L4.21418 19.283C4.20663 19.3997 4.16431 19.4977 4.08478 19.5827L4.03352 19.6375ZM12 18.088C12.9456 18.088 13.8017 18.4714 14.4214 19.0911C15.041 19.7108 15.4244 20.5669 15.4244 21.5125C15.4244 22.4579 15.041 23.3141 14.4214 23.9338C13.8017 24.5535 12.9456 24.9368 12 24.9368C11.0546 24.9368 10.1983 24.5535 9.57865 23.9338C8.95897 23.3141 8.57562 22.4579 8.57562 21.5125C8.57562 20.5669 8.95897 19.7108 9.57865 19.0911C10.1983 18.4714 11.0546 18.088 12 18.088ZM12.7812 22.3993C12.735 22.6304 12.6888 22.8615 12.6605 23.0602C12.6323 23.2589 12.622 23.4251 12.6117 23.5912C12.5656 23.4925 12.5193 23.3939 12.4679 23.3198C12.4165 23.2458 12.3601 23.1966 12.3037 23.1471C12.2317 23.2615 12.1598 23.3757 12.1399 23.4445C12.1201 23.5133 12.1522 23.5367 12.1907 23.7925C12.2112 23.929 12.2337 24.1318 12.2568 24.3654C12.1722 24.373 12.0866 24.3768 12 24.3768C11.9135 24.3768 11.8277 24.373 11.7432 24.3654C11.7664 24.1318 11.7888 23.929 11.8093 23.7925C11.8479 23.5367 11.88 23.5133 11.8601 23.4445C11.8402 23.3757 11.7683 23.2615 11.6964 23.1471C11.6399 23.1966 11.5835 23.2458 11.5321 23.3198C11.4807 23.3939 11.4345 23.4925 11.3883 23.5912C11.3781 23.4251 11.3678 23.2589 11.3396 23.0602C11.3113 22.8615 11.265 22.6304 11.2189 22.3993C11.1059 22.5006 10.9929 22.6019 10.8016 22.7005C10.6104 22.7992 10.1097 22.8953 9.91195 23.0329C9.83216 23.0883 9.76425 23.1506 9.70545 23.2274C9.3476 22.7493 9.13563 22.1556 9.13563 21.5125C9.13563 20.7214 9.45627 20.0052 9.97457 19.487C10.4928 18.9687 11.209 18.6481 12 18.6481C12.791 18.6481 13.5072 18.9687 14.0255 19.487C14.5437 20.0052 14.8644 20.7214 14.8644 21.5125C14.8644 22.1556 14.6524 22.7493 14.2946 23.2274C14.2358 23.1506 14.1678 23.0883 14.0881 23.0329C13.8904 22.8953 13.3897 22.7992 13.1984 22.7005C13.0071 22.6019 12.8942 22.5006 12.7812 22.3993ZM12.6091 21.9755V22.324C12.6091 22.3874 12.5826 22.4419 12.5329 22.4805L11.9772 22.9119L11.4216 22.4805C11.3718 22.4419 11.3452 22.3874 11.3452 22.324V21.9676L11.3014 21.9211C11.2208 21.8361 11.1778 21.7373 11.1703 21.6197L11.1574 21.4198L11.1547 21.419C11.1153 21.4069 11.0824 21.393 11.0576 21.3727C11.0328 21.3523 11.0164 21.3254 10.9975 21.2721C10.9788 21.2188 10.9577 21.1392 10.9426 21.0678C10.9275 20.9966 10.9183 20.9336 10.9143 20.8787C10.9102 20.8238 10.9111 20.777 10.9239 20.7406C10.9367 20.7041 10.971 20.6749 10.9949 20.6674C11.0187 20.6598 11.0315 20.6645 11.042 20.6617C11.0473 20.6604 11.0576 20.6553 11.0528 20.6489C10.6153 20.0507 11.1659 19.3077 11.8737 19.2033C12.2242 19.1517 12.573 19.2438 12.7288 19.6278C13.0656 19.6923 13.1771 20.3598 12.9483 20.6332C12.9421 20.6407 12.9359 20.6475 12.9294 20.6538L12.9287 20.6598C12.9463 20.661 12.9632 20.6648 12.9793 20.6708C13.0134 20.6839 13.0445 20.7071 13.0593 20.7503C13.0739 20.7937 13.072 20.8571 13.0666 20.9204C13.061 20.9836 13.052 21.0466 13.0369 21.11C13.0217 21.1734 13.0007 21.2374 12.9819 21.2828C12.9633 21.3281 12.9468 21.3551 12.9221 21.3754C12.8973 21.3958 12.8643 21.4097 12.8249 21.4218C12.8176 21.4239 12.81 21.4261 12.8023 21.4281L12.7898 21.6211C12.7823 21.7378 12.7399 21.8358 12.6604 21.9208L12.6091 21.9755ZM20.5757 15.75C21.5212 15.75 22.3773 16.1333 22.997 16.753C23.6167 17.3727 24 18.2289 24 19.1744C24 20.1199 23.6167 20.976 22.997 21.5957C22.3773 22.2154 21.5212 22.5988 20.5757 22.5988C19.6302 22.5988 18.774 22.2154 18.1543 21.5957C17.5346 20.976 17.1512 20.1199 17.1512 19.1744C17.1512 18.2289 17.5346 17.3727 18.1543 16.753C18.774 16.1333 19.6302 15.75 20.5757 15.75ZM21.3568 20.0612C21.3106 20.2924 21.2644 20.5234 21.2361 20.7221C21.2079 20.9208 21.1977 21.0871 21.1874 21.2531C21.1412 21.1545 21.0949 21.0558 21.0437 20.9818C20.9921 20.9078 20.9358 20.8585 20.8793 20.8091C20.8074 20.9234 20.7354 21.0376 20.7156 21.1065C20.6957 21.1753 20.7278 21.1987 20.7664 21.4544C20.7869 21.591 20.8093 21.7937 20.8325 22.0274C20.7478 22.0349 20.6622 22.0387 20.5757 22.0387C20.4891 22.0387 20.4034 22.0349 20.3189 22.0274C20.342 21.7937 20.3644 21.591 20.385 21.4544C20.4235 21.1987 20.4556 21.1753 20.4358 21.1065C20.4159 21.0376 20.3439 20.9234 20.272 20.8091C20.2156 20.8585 20.1591 20.9078 20.1078 20.9818C20.0563 21.0558 20.0101 21.1545 19.964 21.2531C19.9537 21.0871 19.9434 20.9208 19.9152 20.7221C19.8869 20.5234 19.8407 20.2924 19.7945 20.0612C19.6815 20.1625 19.5686 20.2638 19.3772 20.3624C19.186 20.4611 18.6853 20.5572 18.4876 20.6949C18.4079 20.7503 18.3399 20.8126 18.2811 20.8893C17.9232 20.4113 17.7113 19.8175 17.7113 19.1744C17.7113 18.3834 18.0319 17.6672 18.5502 17.1489C19.0684 16.6306 19.7846 16.31 20.5757 16.31C21.3666 16.31 22.0828 16.6306 22.6011 17.1489C23.1194 17.6672 23.44 18.3834 23.44 19.1744C23.44 19.8175 23.228 20.4113 22.8702 20.8893C22.8115 20.8126 22.7435 20.7503 22.6638 20.6949C22.466 20.5572 21.9653 20.4611 21.7741 20.3624C21.5828 20.2638 21.4698 20.1625 21.3568 20.0612ZM21.1848 19.6375V19.9859C21.1848 20.0493 21.1582 20.1039 21.1085 20.1424L20.5529 20.5739L19.9972 20.1424C19.9474 20.1039 19.9209 20.0493 19.9209 19.9859V19.6296L19.8771 19.5831C19.7964 19.498 19.7536 19.3992 19.7459 19.2816L19.733 19.0818L19.7303 19.0809C19.6909 19.0689 19.658 19.0549 19.6333 19.0346C19.6085 19.0142 19.592 18.9873 19.5732 18.9341C19.5544 18.8808 19.5334 18.8011 19.5183 18.7298C19.5032 18.6586 19.494 18.5955 19.4899 18.5406C19.4858 18.4857 19.4867 18.439 19.4996 18.4025C19.5124 18.366 19.5466 18.3369 19.5706 18.3293C19.5943 18.3218 19.6071 18.3265 19.6177 18.3237C19.6229 18.3223 19.6333 18.3173 19.6285 18.3109C19.1909 17.7127 19.7415 16.9697 20.4493 16.8653C20.7999 16.8136 21.1487 16.9058 21.3045 17.2898C21.6412 17.3542 21.7528 18.0218 21.524 18.2952C21.5177 18.3026 21.5115 18.3095 21.5051 18.3158L21.5043 18.3218C21.5221 18.3229 21.5388 18.3267 21.5549 18.3328C21.589 18.3458 21.6201 18.3691 21.6349 18.4122C21.6495 18.4556 21.6476 18.5191 21.6422 18.5823C21.6366 18.6455 21.6276 18.7085 21.6125 18.7719C21.5974 18.8354 21.5763 18.8993 21.5576 18.9448C21.5389 18.99 21.5224 19.017 21.4977 19.0373C21.473 19.0578 21.4399 19.0716 21.4005 19.0837C21.3933 19.0859 21.3856 19.088 21.3779 19.09L21.3654 19.283C21.3579 19.3997 21.3156 19.4977 21.236 19.5827L21.1848 19.6375Z" fill="white"/>
<path fill-rule="evenodd" clip-rule="evenodd" d="M7.59766 0.9375H16.4026V15.6411H13.4992V13.2277H10.5011V15.6411H7.59766V0.9375ZM8.88012 1.99326H10.1968V3.75083H8.88012V1.99326ZM8.88012 9.8505H10.1968V11.6081H8.88012V9.8505ZM13.8034 9.8505H15.12V11.6081H13.8034V9.8505ZM11.3418 9.8505H12.6585V11.6081H11.3418V9.8505ZM8.88012 7.23145H10.1968V8.98893H8.88012V7.23145ZM13.8034 7.23145H15.12V8.98893H13.8034V7.23145ZM11.3418 7.23145H12.6585V8.98893H11.3418V7.23145ZM8.88012 4.6124H10.1968V6.36988H8.88012V4.6124ZM13.8034 4.6124H15.12V6.36988H13.8034V4.6124ZM11.3418 4.6124H12.6585V6.36988H11.3418V4.6124ZM13.8034 1.99326H15.12V3.75083H13.8034V1.99326ZM11.3418 1.99326H12.6585V3.75083H11.3418V1.99326Z" fill="white"/>
<path d="M3.17969 15.0158V5.50781H6.5329V6.44527H4.11714V15.0158H3.17969ZM17.4665 5.50781H20.8197V15.0158H19.8823V6.44527H17.4665V5.50781Z" fill="white"/>
<path fill-rule="evenodd" clip-rule="evenodd" d="M11.5312 15.5703H12.4688V17.5184H11.5312V15.5703Z" fill="white"/>
</g>
<defs>
<clipPath id="clip0_586_1461">
<rect width="24" height="24" fill="white" transform="translate(0 0.9375)"/>
</clipPath>
</defs>
</svg>
