<svg width="17" height="4" viewBox="0 0 17 4" fill="none" xmlns="http://www.w3.org/2000/svg">
<path d="M1.57422 3.0625C1.38542 3.0625 1.20964 3.01367 1.04688 2.91602C0.884115 2.81185 0.750651 2.67839 0.646484 2.51562C0.542318 2.34635 0.490234 2.16081 0.490234 1.95898C0.490234 1.76367 0.542318 1.58138 0.646484 1.41211C0.750651 1.24284 0.884115 1.10938 1.04688 1.01172C1.20964 0.914062 1.38542 0.865234 1.57422 0.865234H15.7441C15.9329 0.865234 16.1087 0.914062 16.2715 1.01172C16.4408 1.10938 16.5742 1.24284 16.6719 1.41211C16.776 1.58138 16.8281 1.76367 16.8281 1.95898C16.8281 2.16081 16.776 2.34635 16.6719 2.51562C16.5742 2.67839 16.4408 2.81185 16.2715 2.91602C16.1087 3.01367 15.9329 3.0625 15.7441 3.0625H1.57422Z" fill="black" fill-opacity="0.5"/>
</svg>
